/* XPM */
static char *_7fb535971694c2cd62a522c859ec001ZxtKiRDLckOY35YS[] = {
/* columns rows colors chars-per-pixel */
"64 64 112 2 ",
"   c #BFD36F",
".  c #C0D470",
"X  c #BED26F",
"o  c #BDD26E",
"O  c #BED26E",
"+  c #BFD370",
"@  c #BCD16E",
"#  c #B6CD6B",
"$  c #B5CC6A",
"%  c #BAD06D",
"&  c #B8CE6C",
"*  c #B4CC6A",
"=  c #B9CF6C",
"-  c #BFD470",
";  c #BED36F",
":  c #AFC968",
">  c #ACC766",
",  c #B5CD6A",
"<  c #BAD06C",
"1  c #B1CA69",
"2  c #ABC666",
"3  c #B3CB69",
"4  c #B5CD6B",
"5  c #BBD16D",
"6  c #B3CC6A",
"7  c #AFC967",
"8  c #B1CA68",
"9  c #B2CA69",
"0  c #B3CB6A",
"q  c #B2CB69",
"w  c #BCD16D",
"e  c #B7CE6B",
"r  c #AFC867",
"t  c #AEC867",
"y  c #B0CA68",
"u  c #B0C968",
"i  c #C0D36F",
"p  c #B8CE6B",
"a  c #ACC666",
"s  c #B8CF6C",
"d  c #BBD16E",
"f  c #BACF6D",
"g  c #C0D46F",
"h  c #BBD06D",
"j  c #ADC767",
"k  c #B6CE6B",
"l  c #ADC766",
"z  c #ACC767",
"x  c #C0D370",
"c  c #ABC665",
"v  c #B9CF6D",
"b  c #BFD36E",
"n  c #BED36E",
"m  c #C0D471",
"M  c #C5D778",
"N  c #C9D97D",
"B  c #C1D471",
"V  c #C3D675",
"C  c #C7D87A",
"Z  c #C1D472",
"A  c #C2D573",
"S  c #CFDD86",
"D  c #D8E393",
"F  c #C4D676",
"G  c #CBDB81",
"H  c #D7E392",
"J  c #D3E08C",
"K  c #C5D777",
"L  c #C2D574",
"P  c #CFDE86",
"I  c #D9E495",
"U  c #D5E18E",
"Y  c #CDDC83",
"T  c #D2DF8A",
"R  c #CCDB81",
"E  c #D4E18D",
"W  c #D6E290",
"Q  c #CEDC84",
"!  c #CEDD85",
"~  c #D2DF8B",
"^  c #C6D879",
"/  c #CBDA7F",
"(  c #C7D87B",
")  c #C1D572",
"_  c #D6E291",
"`  c #C4D675",
"'  c #D5E18F",
"]  c #D2E08B",
"[  c #DAE596",
"{  c #D0DE88",
"}  c #DAE496",
"|  c #C6D779",
" . c #CDDC84",
".. c #D4E08D",
"X. c #C9DA7D",
"o. c #CADA7F",
"O. c #C1D473",
"+. c #BED26D",
"@. c #BFD46F",
"#. c #D0DE87",
"$. c #C9DA7E",
"%. c #D8E394",
"&. c #C7D97B",
"*. c #D5E28F",
"=. c #D3E08D",
"-. c #D1DE89",
";. c #C6D87A",
":. c #CEDD84",
">. c #CCDB82",
",. c #D1DF89",
"<. c #BED36D",
"1. c white",
/* pixels */
"      . . . . . . . . . . . . . . . .       . . . . . . .       . . . . . . .   X o o O X O o O   . . . . . . . . . . . . . . . ",
". . . . . . . . . . . . . . . . . . +       . . . . . . .       . . . . . . .   @ # $ % o & * = X . . . . . . . . . . . . . . . ",
". . . . . . . . . . . . . . . . . . -       ; X       X ;       . . . . . . .   % : > , < 1 2 3 o . . . . . . . . . . . . . . . ",
". . . . . . . . . . . . . . . . . . . .   o & 4 % O < 4 = O   . . . . . . . .   5 6 7 8 9 : : # o . . . . . . . . . . . . . . . ",
". . . . . . . . . . . . . . . . . . . .   5 8 > * % 0 > q w   . . . . . .       ; @ e r 2 q % o       . . . . . . . . . . . . . ",
". . . . . . . . . . . . . . . . . . . .   @ * t y 3 u t , o   . . . . . .         i @ 0 u e   .   X   . . . . . . . . . . . . . ",
". . . . . . . . . . . . . . . . . . . .   ; @ p : a 8 s o ;   . . . . . . +       i ; w % @   .       . . . . . . . . . . . . . ",
". . . . . . . . . . . . . . . . . . +       . o * : $ O .       . . . . . . . -                   . . . . . . . . . . . . . . . ",
". . . . . . . . . . . . . . . . . . -       . ; d f w   i       . . . . . . . .     . . . .       . . . . . . . . . . . . . . . ",
". . . . . . . . . . . . . . . . . . . . .                   . . . . . . . . . . . . . . . . . . . . . . . . . . . . . . . . . . ",
". . . . . . . . . . . . . . . . . . . . .     g . . .       . . . . . . . . . . . . . . . . . . . . . . . . . . . . . . . . . . ",
". . . . . . . . . . . . . . . . . . . . . +   g . . . +   . . . . . . . . . . . . . . . . . . . . . . . . . . . . . . . . . . . ",
". . . . . . . . . . . . . . . . . . . . . . . . . . . . . . . . . . . . . . . . . . . . . . . . . . . . . . . . . . . . . . . . ",
". . . . . . . . . . . . . . . . . . . . . . . . . . . . . . . . . . . . . . . . . . . . . . . . . . . . . .       . . . . . . . ",
". . . . . . . + . . . . . . . . .   - . . . . . . . . . . . . . . . . . . . . . . . . . . . . . . . . . . .                     ",
". . . . . .       . . . . . . . i       . . . . . . . . . . . . . . . . . . . . . . . . . . . . . . . . . . . .   o h h O O h < ",
". . . . . .                             . . . . . . . . . . . . . . . . . . . . . . . . . . . . . . . . . . . .   = 8 1 < 5 3 : ",
". . . . . .       o h @ X O 5 5 O       . . . . . . . . . . . . . . . . . . . . . . . . . . . . . . . . . . . .   s t j $ # t > ",
". . . . . . . . ; p u * @ < 8 9 %   . . . . . . . . . . . . . . . . . . . . . . . . . . . . . . . . . . . . . .   w e q 7 t 1 , ",
". . . . . . . . ; , > t k $ l t s   . . . . . . . . . . . . . . . . . . . . . . . . . . . . . . . . . . . .         ; s t z k o ",
". . . . . . . .   % * 8 r r 1 # w   . . . . . . . . . . . . . . . . . . . . . . . . . . . . . . . . . . . .       . x @ # , h   ",
". . . . . .         o , > t s X         . . . . . . . . . . . . . . . . . . . . . .     - . . . . . . .                 O O X   ",
". . . . . .       .   % * , @ . .       . . . . . . . . . . . . . . . . . . . . . .       . . g   g . .       . .         i     ",
". . . . . .           X o O             . . . . . . . . . . . . . . . . . . . . . .       o o O   O o o       . .     . . . .   ",
". . . . . . . .   X   . . . .     . . . . . . . . . . . . . . . . . . . . . . . . . . . o # 3 s o s 3 # o g . . . . . . . . . . ",
". . . . . . . . +     . . . .     . . . . . . . . . . . . . . . . . . . . . . . . . . . @ 1 2 q = 3 2 1 @ x . . . . . . . . . . ",
". . . . . . . . . . . . . . . . . . . . . . . . . . . . . . . . . . . . . . . . . . . . o # y u 8 u u # o   . . . . . . . . . . ",
". . . . . . . . . . . . . . . . . . . . . . . . . . . . . . . . . . . . . . . . . .       O % 1 c u v X       . . . . . . . . . ",
". . . . . . . . . . . . . . . . . . . . . . . . . . . . . . . . . . . . . . . . . .     - . O # 8 # X .         . . . . . . . . ",
". . . . . . . . . . . . . . . . . . . . . . . . . . . . . . . . . . . . . . . . . .           o 5 o             . . . . . . . . ",
". . . . . . . . . . . . . . . . . . . . . . . . . . . . . . . . . . . . . . . . . . . .       . g g       . . . . . . . . . . . ",
". . . . . . . . . . . . . . . . . . . . . . . . . . . . . . . . . . . . . . . . . . . .       . . .       . . . . . . . . . . . ",
". . . . . . . . . . . . . . . . . . . . . . . . . . . . . . . . . . . . . . . . . . . . . . . . . . . . . . . . . . . . . . . . ",
". . . . . . . . . . . . . . . . . . . . . . . . .                   . . . . . . . . . . . . . . . . . . . . . . . . . . . . . . ",
". . . . . . . . . . . . . . . . . . . . . . . . .   b n b     n n     . . . . . . . . . . . . . . . . . . . . . . . . . . . . . ",
". . . . . . . . . . . . . . . . . . . . . . .                           . . . . . . . . . . . . . . . . . . . . . . . . . . . . ",
". . . . . . . . . . . . . . . . . . . . . . .   O m M N M B V N C Z b   . . . . . . . . . . . . . . . . . . . . . . . . . . . . ",
". . . . . . . . . . . . . . . . . . . . . . .   O A S D S F G H J K O   . . . . . . . . . . . .                   . . . . . . . ",
". . . . . . . . . . . . . . . . . . . . . . .   O L P I U Y T I J K O   . . . . . . . . . . .     O O O ; n O O     . . . . . . ",
". . . . . . . . . . . . . . . . . . . . . . .   O m M R E I W Q C Z O   . . . . . . . . . .       b n b     n b         . . . . ",
". . . . . . . . . . . . . . . . . . . . . . .       O A ! I ~ F n       . . . . . . . . . .   b . F C F m A ^ M Z       . . . . ",
". . . . . . . . . . . . . . . . . . . . . . . . .   O   M / ( B O     . . . . . . . . . .     n ) Y _ S ` N ' ] M   n   . . . . ",
". . . . . . . . . . . . . . . . . . . . . . . . .         - x         . . . . . . . . . .     n A S [ ' R { } ' ^ n n   . . . . ",
". . . . . . . . . . . . . . . . . . . . . . . . . .     n O O     . . . . . . . . . . . . g   b m |  ...D _ { X.A   b   . . . . ",
". . . . . . . . . . . . . . . . . . . . . . . . . . x           . . . . . . . . . . . . . .       b A ! } ' |           . . . . ",
". . . . . . . . . . . . . . . . . . . . . . . . . . . . . . . . . . . . . . . . . . . . . . .     O   ^ Y o.O.+.O   . . . . . . ",
". . . . . . . . . . . . . . . . . . . . . . . . . . . . . . . . . . . . . . . . . . . . . . .         x m x         . . . . . . ",
". . . . . . . . . . . @.    g @.      . . . . . . . . . . . . . . . . . . . . . . . . . . . . . . .   O O O b   . . . . . . . . ",
". . . . . . . . . .                     . . . . . . . . . . . . . . . . . . . . . . . . . . . . . .             . . . . . . . . ",
". . . . . . . . @.    b n n b   n n b       . . . . . . . . . . . . . . . . . . . . . . . . . . . . . . . . . . . . . . . . . . ",
". . . . . . . .       B A ) . . A A m       . . . . . . . . . . . . . . . . . . . . . . . . . . . . . . . . . . . . . . . . . . ",
". . . . . . . .   O x C #.Y V F Q S |   b   . . . . . . . . . . . . . . . . . . . . . . . . . . . . . . . . . . . . . . . . . . ",
". . . . . . . .   O . R } H $.o.%.I o.. n   . . . . . . . . . . . . . . . . . . . . . . . . . . . . . . . . . . . . . . . . . . ",
". . . . . . . .   O x &.T *.J =.' -.;.+ b   . . . . . . . . . . . . . . . . . . . . . . . . . . . . . . . . . . . . . . . . . . ",
". . . . . . . .       m F :.} I >.V .       . . . . . . . . . . . . . . . . . . . . . . . . . . . . . . . . . . . . . . . . . . ",
". . . . . . . .       +.b C T ,.M <.O     . . . . . . . . . . . . . . . . . . . . . . . . . . . . . . . . . . . . . . . . . . . ",
". . . . . . . . . .   n   Z F F B   b   . . . . . . . . . . . . . . . . . . . . . . . . . . . . . . . . . . . . . . . . . . . . ",
". . . . . . . . . .       b n n       g . . . . . . . . . . . . . . . . . . . . . . . . . . . . . . . . . . . . . . . . . . . . ",
". . . . . . . . . . . .             . . . . . . . . . . . . . . . . . . . . . . . . . . . . . . . . . . . . . . . . . . . . . . ",
". . . . . . . . . . . . . . . . . . . . . . . . . . . . . . . . . . . . . . . . . . . . . . . . . . . . . . . . . . . . . . . . ",
". . . . . . . . . . . . . . . . . . . . . . . . . . . . . . . . . . . . . . . . . . . . . . . . . . . . . . . . . . . . . . . . ",
". . . . . . . . . . . . . . . . . . . . . . . . . . . . . . . . . . . . . . . . . . . . . . . . . . . . . . . . . . . . . . . . ",
". . . . . . . . . . . . . . . . . . . . . . . . . . . . . . . . . . . . . . . . . . . . . . . . . . . . . . . . . . . . . . . . ",
". . . . . . . . . . . . . . . . . . . . . . . . . . . . . . . . . . . . . . . . . . . . . . . . . . . . . . . . . . . . . . . . "
};
