/* XPM */
static char *_45bf70109864a7da4a1cfce7ad7eccd3JqbnEFdjMOGngoN[] = {
/* columns rows colors chars-per-pixel */
"64 64 145 2 ",
"   c #BCD16E",
".  c #BDD16E",
"X  c #BED26E",
"o  c #BFD36F",
"O  c #C0D470",
"+  c #BED26E",
"@  c None",
"#  c #BED26E",
"$  c #BFD26E",
"%  c #BFD36F",
"&  c #C0D470",
"*  c #BFD26F",
"=  c #BFD26E",
"-  c #BED36F",
";  c #BFD36F",
":  c #C0D470",
">  c #BED26E",
",  c #BCD16E",
"<  c #BAD06D",
"1  c #BBD06D",
"2  c #BDD26E",
"3  c #BCD16D",
"4  c #BFD470",
"5  c #BED26F",
"6  c #B8CE6C",
"7  c #B2CB69",
"8  c #B5CC6A",
"9  c #B7CD6B",
"0  c #B2CA69",
"q  c #B5CD6A",
"w  c #BACF6C",
"e  c #BCD06D",
"r  c #AFC867",
"t  c #B0C967",
"y  c #B6CD6A",
"u  c #AEC866",
"i  c #B3CB69",
"p  c #B2CA68",
"a  c #BBD06C",
"s  c #B7CE6B",
"d  c #BAD06C",
"f  c #B4CC69",
"g  c #B0C968",
"h  c #BBD16D",
"j  c #B4CC6A",
"k  c #ADC767",
"l  c #B1C968",
"z  c #B6CC6A",
"x  c #B1CA68",
"c  c #AEC867",
"v  c #BFD36E",
"b  c #ADC766",
"n  c #B9CF6C",
"m  c #BDD16E",
"M  c #AEC766",
"N  c #BED16E",
"B  c #B8CE6B",
"V  c #BFD370",
"C  c #BED270",
"Z  c #BED370",
"A  c #C0D46F",
"S  c #BACF6D",
"D  c #BCD06E",
"F  c #B4CB6A",
"G  c #AFC968",
"H  c #B0CA68",
"J  c #AFC868",
"K  c #B5CC6B",
"L  c #B6CD6B",
"P  c #AFC967",
"I  c #B1CA69",
"U  c #ADC867",
"Y  c #BED26D",
"T  c #C1D471",
"R  c #C1D472",
"E  c #C0D370",
"W  c #C8D97D",
"Q  c #CBDB81",
"!  c #C5D779",
"~  c #C3D574",
"^  c #C9D97D",
"/  c #C4D677",
"(  c #C2D575",
")  c #CFDE87",
"_  c #D5E190",
"`  c #CDDC84",
"'  c #D2DF8A",
"]  c #D6E290",
"[  c #C9DA7E",
"{  c #C2D473",
"}  c #CBDB82",
"|  c #D3E08D",
" . c #D3E08C",
".. c #D4E08D",
"X. c #C7D87A",
"o. c #BED36E",
"O. c #BFD46F",
"+. c #C2D574",
"@. c #CADA7E",
"#. c #D7E392",
"$. c #D0DE87",
"%. c #C6D779",
"&. c #C0D471",
"*. c #C0D371",
"=. c #CDDC83",
"-. c #D1DF89",
";. c #C8D97C",
":. c #C0D36F",
">. c #C1D372",
",. c #C7D87B",
"<. c #C5D778",
"1. c #C8D87B",
"2. c #CBDA80",
"3. c #C5D677",
"4. c #C3D675",
"5. c #C5D777",
"6. c #CEDD85",
"7. c #D6E190",
"8. c #D1DE89",
"9. c #D5E18F",
"0. c #CADA7F",
"q. c #C1D573",
"w. c #D4E08E",
"e. c #D1DF8A",
"r. c #D1DF8B",
"t. c #C7D97C",
"y. c #CAD97E",
"u. c #D7E393",
"i. c #D0DE88",
"p. c #C6D87A",
"a. c #C9D97E",
"s. c #C4D575",
"d. c #C2D573",
"f. c #C3D575",
"g. c #C1D473",
"h. c #D4E18E",
"j. c #D0DF8A",
"k. c #D5E18E",
"l. c #D2DF8B",
"z. c #CFDD86",
"x. c #C4D676",
"c. c #D7E292",
"v. c #D3DF8C",
"b. c #C6D778",
"n. c white",
/* pixels */
"  . X o o o O O O O O O O O O O O O O O O O O O O O O O O O O O O O O O o o + o O O O O O o o + o o O O O O O O O O O O O O O O ",
"@ @ # $ % % & & & & & & & & & & & & % % % % & & & & & & & % % % % & & & % % # % % % % % % % % # % % & & & & & & & & & & & & & & ",
"* = - ; ; ; : : : : : : : : : : : : ; > ; ; ; ; ; ; ; ; ; ; > ; ; : : : ; ; > , < 1 2 , 1 3 > ; ; ; : : : : : : : : : : : : : : ",
"; > - 4 : : : : : : : : : : : : : : ; ; > = > > > - 5 > > ; > ; ; : : : : ; > 6 7 8 1 9 0 q , ; : : : : : : : : : : : : : : : : ",
"> ; ; 4 : : : : : : : : : : : : : : : ; ; > 3 w 3 > e w 3 > ; ; : : : : : ; > 9 r t y 0 u i , ; : : : : : : : : : : : : : : : : ",
"3 ; : : : : : : : : : : : : : : : : : : 4 2 y p y a y 0 s 2 ; : : : : : : ; > d f g r r 7 6 2 ; : : : : : : : : : : : : : : : : ",
"h ; 4 4 : : : : : : : : : : : : : : : ; ; 2 j k l z x c q 2 ; : : : : : ; ; ; v h j b x n > = ; ; : : : : : : : : : : : : : : : ",
"2 ; ; 4 : : : : : : : : : : : : : : ; ; ; > n i g r g j n > ; ; ; : : : ; ; v ; 5 < q 6 m ; ; > ; ; : : : : : : : : : : : : : : ",
"> > - 4 : : : : : : : : : : : : : : ; > ; ; > d 7 M i 1 5 ; ; ; ; : : : ; ; = - 5 > 2 2 5 v v ; ; : : : : : : : : : : : : : : : ",
"> > ; 4 : : : : : : : : : : : : : : ; 5 ; ; ; N B 8 n > ; ; > ; ; : : : : ; ; 5 - ; ; ; ; 5 ; ; : : : : : : : : : : : : : : : : ",
"; > ; : : : : : : : : : : : : : : : V V 5 5 ; > m m > > > > > ; ; : : : : V V C Z 4 4 : V C C V : : : : : : : : : : : : : : : : ",
"; ; ; : : : : : : : : : : : : : : : : V ; ; > ; ; ; ; > > ; ; ; : : : : : V V V V 4 : : V V V V : : : : : : : : : : : : : : : : ",
"; ; : : : : : : : : : : : : : : : : : : A ; ; ; : : ; ; ; ; : : : : : : : : : : : : : : : : : : : : : : : : : : : : : : : : : : ",
"> ; : : : : : : : : : : : : : : : : : : : : : : : : : : : : : : : : : : : : : : : : : : : : : : : : : V V V V : : : : : : ; ; ; ",
"; ; : : : : : : : : : : : : : : : : : : : : : : : : : : : : : : : : : : : : : : : : : : : : : : : : : ; 5 ; ; : : : : : : ; > > ",
"; : : : : : : ; ; ; ; : : : : : : ; ; ; ; : : : : : : : : : : : : : : : : : : : : : : : : : : : : : : ; > ; ; ; ; ; ; ; ; ; > > ",
": : : : : : : ; ; ; ; ; ; ; ; ; ; ; ; ; ; : : : : : : : : : : : : : : : : : : : : : : : : : : : : : : ; ; ; > 3 3 2 2 3 3 > * ; ",
": : : : : : : ; > > - 5 > - ; > 5 - ; > ; : : : : : : : : : : : : : : : : : : : : : : : : : : : : : : ; ; > 1 8 8 S < j 8 1 5 ; ",
": : : : : : : ; ; ; 2 e 3 2 > 3 D 2 ; ; ; : : : : : : : : : : : : : : : : : : : : : : : : : : : : : : ; ; > n g r j q c g w 5 ; ",
": : : : : : : : ; ; a F 8 d d f 8 1 ; ; : : : : : : : : : : : : : : : : : : : : : : : : : : : : : : : : ; > 1 8 g t G H q h 5 ; ",
": : : : : : : : ; - n g J K z c g n ; ; : : : : : : : : : : : : : : : : : : : : : : : : : : : : : : : ; ; ; 5 3 y r c 9 3 > - ; ",
": : : : : : : : ; - 1 8 g g t g 8 1 ; ; : : : : : : : : : : : : : : : : : : : : ; ; ; ; : : : : : : : ; > ; ; - 1 8 f h ; ; > > ",
": : : : : : : ; ; > > e L P c L , > v ; ; : : : : : : : : : : : : : : : : : : : ; > ; ; : : : : : : ; ; > ; ; - > , 3 > ; ; ; ; ",
": : : : : : : ; > ; ; = a j j 1 * ; 5 5 ; : : : : : : : : : : : : : : : : : : : ; > ; ; ; ; ; ; ; ; ; ; ; ; ; > ; ; ; ; > ; ; ; ",
": : : : : : : ; > > ; ; > 3 3 2 ; ; 5 5 ; : : : : : : : : : : : : : : : : : : : ; ; > > m 2 > 2 m 2 > ; ; ; ; > ; : ; ; > ; ; : ",
": : : : : : : ; ; ; ; > ; ; ; ; > ; ; V V : : : : : : : : : : : : : : : : : : : : ; > 6 j B e B f 6 m ; ; ; ; ; ; : : ; ; ; : : ",
": : : : : : : : : ; ; ; ; : : ; ; ; : : : : : : : : : : : : : : : : : : : : : : : ; 2 j c 0 L p M 8 3 ; ; : : : : : : : : : : : ",
": : : : : : : : : : : : : : : : : : : : : : : : : : : : : : : : : : : : : : : : ; ; > B 0 G g g 0 B m ; ; ; : : : : : : : : : : ",
": : : : : : : : : : : : : : : : : : : : : : : : : : : : : : : : : : : : : : : : ; > = m n I U p w 2 > = ; ; : : : : : : : : : : ",
": : : : : : : : : : : : : : : : : : : : : : : : : : : : : : : : : : : : : : : : ; > ; ; 2 9 i 9 N ; ; > ; ; : : : : : : : : : : ",
": : : : : : : : : : : : : : : : : : : : : : : : : : : : : : : : : : : : : : : : ; > ; ; > m 1 m > ; ; ; ; ; : : : : : : : : : : ",
": : : : : : : : : : : : : : : : : : : : : : : : : : : : : : : : : : : : : : : : ; ; ; > ; ; ; ; ; > ; ; ; ; : : : : : : : : : : ",
": : : : : : : : : : : : : : : : : : : : : : : : : : : : : : : : : : : : : : : : : : ; ; ; : : ; ; ; ; : : : : : : : : : : : : : ",
": : : : : : : : : : : : : : : : : : : : : : : : ; ; ; ; ; ; ; ; ; ; : : : : : : : : ; ; ; : : ; ; ; ; : : : : : : : : : : : : : ",
": : : : : : : : : : : : : : : : : : : : : : : : ; > > > > > > > > ; : : : : : : : : : : : : : : : : : : : : : : : : : : : : : : ",
": : : : : : : : : : : : : : : : : : : : : : A A ; > Y Y Y > Y Y Y ; ; ; ; : : : : : : : : : : : : : : : : : : : : : : : : : : : ",
": : : : : : : : : : : : : : : : : : : : : A A ; ; ; T R : ; T R E ; ; > ; : : : : : : : : : : : : : : : : : : : : : : : : : : : ",
": : : : : : : : : : : : : : : : : : : : : ; ; v > R W Q ! ~ ^ Q / V > ; ; : : : : : : : : : : : : : : : : : : : : : : : : : : : ",
": : : : : : : : : : : : : : : : : : : : : ; ; > > ( ) _ ` ^ ' ] [ V Y ; ; : : : : : : ; ; ; ; ; ; ; ; ; ; ; ; ; : : : : : : : : ",
": : : : : : : : : : : : : : : : : : : : : ; ; > > { } |  .' ..' X.E > ; ; : : : : : : ; ; ; ; > o.o.> > > > o.; ; : : : : : : : ",
": : : : : : : : : : : : : : : : : : : : : : O.; > ; +.@...#.$.%.R 5 > ; ; : : : : : : ; > > ; E &.: ; E *.V * o.; : : : : : : : ",
": : : : : : : : : : : : : : : : : : : : : : : ; ; > Y +.=.-.;.:.> ; ; ; ; : : : : : : ; > > >.,.Q <.+.1.2.3.; > ; : : : : : : : ",
": : : : : : : : : : : : : : : : : : : : : : : : ; > o.V 4.5.{ v > ; : : : : : : : : : ; > Y +.6.7.` W 8.9.0.*.> ; : : : : : : : ",
": : : : : : : : : : : : : : : : : : : : : : : : ; ; ; > > > > > ; ; : : : : : : : : : ; > Y q.Q w.| e.w.r.t.E > ; : : : : : : : ",
": : : : : : : : : : : : : : : : : : : : : : : : : : ; > > > > v ; : : : : : : : : : : ; > > V ~ y.| u.i.p.R ; > ; : : : : : : : ",
": : : : : : : : : : : : : : : : : : : : : : : : : : ; ; ; ; ; ; A A : : : : : : : : : ; ; ; > > +.` ' a.*.> > ; ; : : : : : : : ",
": : : : : : : : : : : : : : : : : : : : : : : : : : : : : : : : : : : : : : : : : : : : : ; o.> E s.5.d.* > v ; : : : : : : : : ",
": : : : : : : : : : ; ; ; ; ; ; ; ; ; ; ; : : : : : : : : : : : : : : : : : : : : : : : : O.; * * ; o.o.; > ; A : : : : : : : : ",
": : : : : : : : : : ; ; ; > > > > > > ; ; : : : : : : : : : : : : : : : : : : : : : : : : : ; ; ; o.o.o.; ; ; : : : : : : : : : ",
": : : : : : : : : : ; ; > Y Y > > Y Y > ; ; : : : : : : : : : : : : : : : : : : : : : : : : : ; ; ; ; ; ; ; : : : : : : : : : : ",
"; ; : : : : : : : ; ; ; ; E E ; ; : : ; ; ; ; : : : : : : : : : : : : : : : : : : : : : : : : : : : : : : : : : : : : : : : : : ",
"> ; : : : : : : : ; ; ; f.^ ;.+.4.[ ;.g.> > ; : : : : : : : : : : : : : : : : : : : : : : : : : : : : : : : : : : : : : : : : : ",
"> ; : : : : : : : ; ; ; ,. . .;.2.h.j./ > > ; : : : : : : : : : : : : : : : : : : : : : : : : : : : : : : : : : : : : : : : : : ",
"> ; : : : : : : : ; v ; %.-.k.i.l.9.z.x.> > ; : : : : : : : : : : : : : : : : : : : : : : : : : : : : : : : : : : : : : : : : : ",
"> ; : : : : : : : ; v v R p.z.c.9.=.<.&.> > ; : : : : : : : : : : : : : : : : : : : : : : : : : : : : : : : : : : : : : : : : : ",
"> ; : : : : : : : ; ; > Y E ,.v.i.<.* > > > ; : : : : : : : : : : : : : : : : : : : : : : : : : : : : : : : : : : : : : : : : : ",
"> ; : : : : : : : : ; ; > = d.p.b.R > > ; ; ; : : : : : : : : : : : : : : : : : : : : : : : : : : : : : : : : : : : : : : : : : ",
"> ; : : : : : : : : ; ; ; ; > * * > o.; ; ; : : : : : : : : : : : : : : : : : : : : : : : : : : : : : : : : : : : : : : : : : : ",
"> ; : : : : : : : : : : : ; > > > > > ; : : : : : : : : : : : : : : : : : : : : : : : : : : : : : : : : : : : : : : : : : : : : ",
"; ; : : : : : : : : : : : ; ; > > > ; ; : : : : : : : : : : : : : : : : : : : : : : : : : : : : : : : : : : : : : : : : : : : : ",
": : : : : : : : : : : : : : ; ; ; ; ; : : : : : : : : : : : : : : : : : : : : : : : : : : : : : : : : : : : : : : : : : : : : : ",
": : : : : : : : : : : : : : : : : : : : : : : : : : : : : : : : : : : : : : : : : : : : : : : : : : : : : : : : : : : : : : : : ",
": : : : : : : : : : : : : : : : : : : : : : : : : : : : : : : : : : : : : : : : : : : : : : : : : : : : : : : : : : : : : : : : ",
": : : : : : : : : : : : : : : : : : : : : : : : : : : : : : : : : : : : : : : : : : : : : : : : : : : : : : : : : : : : : : : : "
};
