/* XPM */
static char *_057bf8c2a7b46299a8ef6e096a46c2cYPAfLXcWQbo2FfAs[] = {
/* columns rows colors chars-per-pixel */
"64 64 190 2 ",
"   c None",
".  c #525E5F",
"X  c #54635F",
"o  c #57685E",
"O  c #5A6B5E",
"+  c #5D735D",
"@  c #7C6E4F",
"#  c #6D6A55",
"$  c #657D5D",
"%  c #687D5E",
"&  c #707F57",
"*  c #515E60",
"=  c #556461",
"-  c #627662",
";  c #657960",
":  c #777C61",
">  c #8C5E5B",
",  c #8F7347",
"<  c #8D784F",
"1  c #87774C",
"2  c #917649",
"3  c #967B4B",
"4  c #987E4C",
"5  c #967B46",
"6  c #8F605B",
"7  c #94655B",
"8  c #9D6C59",
"9  c #95695D",
"0  c #9F7059",
"q  c #A77557",
"w  c #A87657",
"e  c #A57458",
"r  c #A87758",
"t  c #A97958",
"y  c #A2795F",
"u  c #996E6D",
"i  c #9C7460",
"p  c #AA6673",
"a  c #B7737E",
"s  c #BB747D",
"d  c #B26B78",
"f  c #66825B",
"g  c #6A865C",
"h  c #6D8B5B",
"j  c #718D5D",
"k  c #6F9159",
"l  c #6D9257",
"z  c #749E56",
"x  c #75935D",
"c  c #7B965F",
"v  c #779D59",
"b  c #7C9C5C",
"n  c #77A057",
"m  c #7AA357",
"M  c #7CA359",
"N  c #6F8463",
"B  c #7B9460",
"V  c #708563",
"C  c #AC913F",
"Z  c #9C834E",
"A  c #829B5D",
"S  c #989556",
"D  c #A58A45",
"F  c #B09744",
"G  c #B39A47",
"H  c #B49B48",
"J  c #A48B52",
"K  c #AE825B",
"L  c #A88F53",
"P  c #B4895D",
"I  c #B88F5F",
"U  c #AC9455",
"Y  c #AF9857",
"T  c #AA9B59",
"R  c #B9925F",
"E  c #B39D59",
"W  c #B59859",
"Q  c #81A55C",
"!  c #84A95B",
"~  c #89AD5C",
"^  c #95AB5B",
"/  c #94A258",
"(  c #8DB15C",
")  c #91B25F",
"_  c #9DB15E",
"`  c #BCA54D",
"'  c #ACA25B",
"]  c #BFAA50",
"[  c #B5A15B",
"{  c #B9A55D",
"}  c #BDAA5D",
"|  c #BAA455",
" . c #869963",
".. c #969E63",
"X. c #A58766",
"o. c #A9996B",
"O. c #BD9961",
"+. c #BC9760",
"@. c #A98171",
"#. c #B78C7B",
"$. c #BB917B",
"%. c #8DA564",
"&. c #87A261",
"*. c #93AD64",
"=. c #96A269",
"-. c #99A766",
";. c #95B462",
":. c #9AB663",
">. c #9BBA62",
",. c #97B860",
"<. c #BFAE61",
"1. c #BEA365",
"2. c #A1BC66",
"3. c #A4BB69",
"4. c #ABBE6A",
"5. c #ADBF65",
"6. c #BEB964",
"7. c #B3BE6C",
"8. c #B2B663",
"9. c #BAAE73",
"0. c #C1AC54",
"q. c #C1AC5D",
"w. c #C5B156",
"e. c #CAB75A",
"r. c #CAB95C",
"t. c #C4B159",
"y. c #C4AD62",
"u. c #C5AD6C",
"i. c #C8AB64",
"p. c #C5B263",
"a. c #CAB464",
"s. c #CBBA66",
"d. c #CAB26B",
"f. c #CCBD6B",
"g. c #D1BB6A",
"h. c #C9B872",
"j. c #AAC567",
"k. c #ADC669",
"l. c #AFC869",
"z. c #A6C167",
"x. c #B5CB6C",
"c. c #B4C56A",
"v. c #BBD26D",
"b. c #D3C364",
"n. c #D5C36A",
"m. c #D6C96C",
"M. c #DACC6C",
"N. c #D8C769",
"B. c #DDD06B",
"V. c #D9CC73",
"C. c #DED170",
"Z. c #E2D672",
"A. c #E7DD76",
"S. c #E5DA74",
"D. c #E5DC7B",
"F. c #E9DF79",
"G. c #E1D56E",
"H. c #EAE177",
"J. c #EEE679",
"K. c #ECE579",
"L. c #EEE87D",
"P. c #BE7981",
"I. c #BF9C87",
"U. c #C28086",
"Y. c #C58489",
"T. c #CB8B8D",
"R. c #C9878A",
"E. c #C49A89",
"W. c #CE8E92",
"Q. c #D19696",
"!. c #D49B99",
"~. c #D99E9C",
"^. c #D29698",
"/. c #CC9293",
"(. c #DCA19E",
"). c #DDA6A1",
"_. c #DDA9A3",
"`. c #E2ACA6",
"'. c #E5AEA8",
"]. c #E0A5A3",
"[. c #E3B3AA",
"{. c #D2C581",
"}. c #DDD581",
"|. c #DCD292",
" X c #E3DB85",
".X c #E6E185",
"XX c #EFEC89",
"oX c #E4DEA3",
"OX c #E8C4B6",
"+X c #E8E3A5",
/* pixels */
"                                                                                                                                ",
"                                                                                                                                ",
"                                                                                                                                ",
"                                                                                        H H H G G G G G                         ",
"                                                                                      } s.s.r.e.e.r.r.t.Y                       ",
"                                                                                G F G p.}..XD.S.S.S.S.m.[ Z 3 4                 ",
"                                                                              ] w.w.0.s. XXXL.K.K.K.K.Z.p.E Y Y L               ",
"                                                                            G w.M.M.b.N.Z.D.D.S.S.S.S.Z.n.s.a.y.Y 4             ",
"                                                                            F 0.M.C.m.g.g.d.u.u.u.u.u.d.g.N.N.a.Y 3             ",
"                G G G G G F D Z 4 4 4                                       H 0.b.N.g.i.R K y i i i i X.1.g.N.s.E Z 2           ",
"                p.h.h.h.a.t.} [ [ E Y                                     } p.n.m.g.i.R t e 8 7 6 > > 9 X.1.g.N.a.[ U           ",
"            C | {.oX+XoX XC.M.M.C.m.p.J 2                               H s.}..XS.g.R t t r r 8 7 6 > 6 9 X.d.Z.S.m.{ Z         ",
"            D E {.+X+X|.V.N.b.N.G.S.s.J 2                             C H s..XXXF.g.P q w t t r 8 7 7 > > i u.A.J.S.} Z ,       ",
"            5 U f.D.m.q.| ` ` ] b.Z.s.J 2                             C G r.S.L.A.g.P q w t t r r 0 7 6 > i u.A.K.Z.} Z ,       ",
"            1 J s.Z.b.w.] 0.0.0.b.Z.s.J 1                             C G e.Z.K.A.g.P r r t t t t r 8 7 6 i u.S.K.Z.} Z ,       ",
"    f f f & 1 J a.S.S.B.M.M.M.B.S.S.s.J 1 & f f f                     C G e.Z.K.A.g.P r r t t t t r r 8 7 i u.S.K.Z.} Z ,       ",
"    f g x A S T <.n.C.Z.S.S.S.Z.C.n.<.T S A x g f                     C G r.S.K.A.g.P q w t t t t t t e 8 y u.S.H.C.{ Z 2       ",
"    f x *.4.c.8.' E p.N.m.m.m.N.p.E ' 8.c.4.*.x f                     C G r.S.K.A.g.P q w t t t t t t r e K d.S.S.n.E Z 2       ",
"    f B 3.v.v.j./ S ' 6.6.6.6.6.' S S 5.v.v.3.B f                       G 0.n.C.Z.g.O.K t w w w w w w t K +.g.C.n.y.Y 4         ",
"    f B 3.v.k.>.^ / ^ _ ^ ^ ^ _ ^ / ^ ,.j.v.3.B f                         U Y <.n.n.a.O.K w w w w w w K R a.n.n.} U Z           ",
"    % B *.2.*.! ~ ( ( ~ M v M ~ ( ( ~ ! *.2.*.B %                           4 Y a.N.n.a.O.I I R R R I O.a.n.N.s.Y 4             ",
"      N B B x x Q ( ( ~ v k v ~ ( ( Q x x B B V                             3 Y a.n.n.n.n.n.n.n.n.n.n.n.n.n.n.a.Y 3             ",
"        % f f g x A Q b x g x b Q A x g f f %                               4 U } p.p.n.Z.H.H.H.H.F.A.C.g.p.p.q.Y 4             ",
"              - $ % % % ; - ; % % % $ -                                       J L L U <.C.K.K.K.K.H.Z.n.{ U L L J               ",
"                = = = =       = = = =                                           3 2 4 E f.M.M.M.M.m.s.q.U 3 3 3                 ",
"                                                                                      L Y E E E E E Y L Z                       ",
"                                                                                        3 3 < < < < 3 3                         ",
"                                                                        n z z z z         @ # # # # @         z z z z n         ",
"                                                                        m M Q ! Q Q         o o o o         Q ! ! Q M m n       ",
"                                                                      z M ~ >.2.2.;.Q       + + + +       Q ;.2.2.>.~ M z       ",
"                                                                      z M ;.x.v.x.>.! m     f f f f     m ! >.x.v.x.;.M z       ",
"                                                                      h x ;.x.v.j.>.~ ! M x g f f g x m ! ~ ,.j.v.v.;.x h       ",
"                                                                        h %.k.z.) ~ ! M v k g f f g k v M ! ~ ) z.k.*.j         ",
"                                                                           .%.&.c x j g f f f f f f f f g j x c &.%. .          ",
"                                                                            h h g $ O o o + $ f f $ + o o O $ g h h             ",
"                                                                              $ $ + X . X O $ f f % + X * X + $ $               ",
"                                                                                            f f f f                             ",
"                                                                                            f f f f                             ",
"                                                                                            f f f f                             ",
"                                                                                            f f f f                             ",
"                P.P.P.P.s s s s a d d                               n M M M M M             f f f f               M M M M n     ",
"                /.!.!.!.Q.W.W.T.T.Y.P.                            z M ! ;.;.;.~             f f f f             ~ ;.;.) ! M n   ",
"            s Y.).OXOXOX[._.).)._.).W.a p                         z M ;.k.x.l.>.Q z         f f f f         z Q >.k.x.k.;.M z   ",
"            s Y._.OXOX[.).~.!.~.`.[.Q.a p                         z M >.v.v.l.>.! M         f f f f         M ! ,.k.v.v.:.v l   ",
"            s U.~.[.(.T.Y.Y.Y.Y.!.`.Q.a p                         z M >.x.k.>.( ~ ! M n     f f f f     n m Q ~ ( >.k.x.;.x f   ",
"            p P.!.`.~.T.R.R.R.T.~.`.^.a p                           M *.:.,.( ( ( ~ ! M   f f f f f f   M ! ~ ( ( ( ,.:.%.h     ",
"    f f f : u a Q.`.`.).).).).).`.'.Q.a u : f f f                     x c Q ~ ( ( ~ ~ M h f f f f f f h M ~ ~ ( ( ~ Q c j       ",
"    f g x  .X.#.T.!.].`.'.'.'.'.).~./.#.X. .x g f                       f x b Q Q b b j % $ % f f f $ % j c b Q Q b x g         ",
"    f x *.4.7.9.$.U.W.~.(.(.(.~.W.U.$.9.7.4.*.x f                         h h j h g $ + O + $ f f $ + O + $ g h h h h           ",
"    f B 3.v.v.7.o.@.#.E.E.I.E.E.#.@.o.7.v.v.3.B f                           f f f + o X X O $ f f $ O X X o + f f f             ",
"    f B 3.v.j.,.-...-.-.=.=.=.-.-...-.,.j.v.3.B f                                           f f f f                             ",
"    % B *.2.*.! ~ ( ( ~ M v M ~ ( ( ~ ! *.2.*.B %                                           f f f f                             ",
"      N B B x x Q ( ( ~ v k v ~ ( ( Q x x c B N                                             f f f f                             ",
"        % % % g x b Q b x g j b Q b x g % % %                                               f f f f                             ",
"              - $ % % % ; - ; % % % $ -                                                     f f f f                             ",
"                = = = =       = = = =                                                       f f f f                             ",
"                                                                                            f f f f                             ",
"                                                                                            % f f f                             ",
"                                                                                            f f f f                             ",
"                                                                                            % f f %                             ",
"                                                                                                                                ",
"                                                                                                                                ",
"                                                                                                                                ",
"                                                                                                                                "
};
