/* XPM */
static char *_8f968c298e24dd3c3d59d427f5c0c7e1BC5E6viIuxHItlC[] = {
/* columns rows colors chars-per-pixel */
"64 64 162 2 ",
"   c None",
".  c #70475F",
"X  c #764D5F",
"o  c #794F5F",
"O  c #77555D",
"+  c #7C525E",
"@  c #637F5B",
"#  c #6A785B",
"$  c #78795C",
"%  c #6D4662",
"&  c #744C60",
"*  c #775166",
"=  c #7F5561",
"-  c #82575D",
";  c #855A5E",
":  c #8B5D5B",
">  c #8F615D",
",  c #91635D",
"<  c #97695F",
"1  c #996B5C",
"2  c #837957",
"3  c #9F715D",
"4  c #A67659",
"5  c #AD7D5B",
"6  c #805661",
"7  c #885F62",
"8  c #8D6463",
"9  c #916662",
"0  c #946962",
"q  c #9A6D62",
"w  c #9E7260",
"e  c #A17665",
"r  c #A67B65",
"t  c #AB7E64",
"y  c #A37768",
"u  c #A77D6B",
"i  c #A97F6C",
"p  c #7D9A5D",
"a  c #75A256",
"s  c #76A058",
"d  c #7CA458",
"f  c #7EA858",
"g  c #8A8B59",
"h  c #978455",
"j  c #988755",
"k  c #9E8A57",
"l  c #9E8A5A",
"z  c #899457",
"x  c #9E9259",
"c  c #91995F",
"v  c #A68058",
"b  c #AA835A",
"n  c #A6895B",
"m  c #B3845F",
"M  c #A99A5D",
"N  c #B0905F",
"B  c #82A55C",
"V  c #82A95A",
"C  c #8AAE5C",
"Z  c #95A45D",
"A  c #8EB25D",
"S  c #92B55E",
"D  c #9BB25E",
"F  c #96B85F",
"G  c #A5A35F",
"H  c #AD8265",
"J  c #AE8962",
"K  c #AB816D",
"L  c #B18463",
"P  c #B68A64",
"I  c #BA8D64",
"U  c #B08769",
"Y  c #B68B68",
"T  c #B98F6A",
"R  c #BD9166",
"E  c #B49A64",
"W  c #BC9269",
"Q  c #B28871",
"!  c #B99176",
"~  c #BE9872",
"^  c #BE9778",
"/  c #BF9879",
"(  c #91A764",
")  c #98A967",
"_  c #9BA969",
"`  c #91B360",
"'  c #97BA60",
"]  c #9CBC61",
"[  c #A8A260",
"{  c #A5AB6E",
"}  c #B7AC67",
"|  c #A4B761",
" . c #A1BF63",
".. c #AEBE65",
"X. c #B7B265",
"o. c #AEAE73",
"O. c #B6AF77",
"+. c #B7B078",
"@. c #BDB17A",
"#. c #C19566",
"$. c #C09669",
"%. c #C59B6C",
"&. c #C89E6C",
"*. c #C19473",
"=. c #C69E72",
"-. c #C29B7A",
";. c #C89F7D",
":. c #C9A06D",
">. c #C9A37E",
",. c #D1AA79",
"<. c #C3B27C",
"1. c #A5C364",
"2. c #AAC666",
"3. c #AEC967",
"4. c #ACC668",
"5. c #B3C269",
"6. c #B4CC6A",
"7. c #BACD6D",
"8. c #BFD36F",
"9. c #C1D570",
"0. c #C5DA72",
"q. c #C8A681",
"w. c #CCA982",
"e. c #D2AD84",
"r. c #D1AD89",
"t. c #CEB583",
"y. c #D1B584",
"u. c #D9B687",
"i. c #D5B48F",
"p. c #DAB689",
"a. c #DCBA8A",
"s. c #DDBD91",
"d. c #E2BD8D",
"f. c #DFC29A",
"g. c #E1C397",
"h. c #E1C397",
"j. c #E2C69D",
"k. c #E2C69D",
"l. c #E4CA9F",
"z. c #E4CA9F",
"x. c #E2C7A0",
"c. c #E1C7A1",
"v. c #E6CCA3",
"b. c #E6CCA3",
"n. c #E7D2AE",
"m. c #EAD3AB",
"M. c #E9D1AA",
"N. c #EAD3AC",
"B. c #EEDBB4",
"V. c #EDD9B4",
"C. c #EFDDB7",
"Z. c #EEDAB3",
"A. c #EFDDB8",
"S. c #EFDEBA",
"D. c #EFDDB8",
"F. c #F0DDB6",
"G. c #F0DDB6",
"H. c #F0DFBA",
"J. c #F0DFBB",
"K. c #F2E3BF",
"L. c #F2E2BD",
"P. c #F2E3BE",
/* pixels */
"                                                        , , , , , , , ,                                                         ",
"                                                : : : 0 ! / ^ ^ ^ ^ / ! 0 : : :                                                 ",
"                                                i K i Q p.d.d.d.d.d.d.p.Q i K i                                                 ",
"                                        q q q y e.a.a.p.y.t.t.t.t.t.t.y.p.a.a.e.y q q q                                         ",
"                                , , > q >.e.e.e.p.a.a.y.( B B B B B B ( y.a.a.p.e.e.e.>.q > , ,                                 ",
"                        : : : 0 ! / ^ -.p.d.d.p.{ _ _ _  .' S S S S '  ._ _ _ { p.d.d.p.-.^ / ! 0 : : :                         ",
"                        i K i Q p.d.d.p.@.O.O.o.C f a d 7.6.1.1.1.1.6.7.d a f C o.O.O.@.p.d.d.p.Q i K i                         ",
"                q q q y e.a.a.p.y.t.y.<.B d V V ] F V V 6.4.]  . .] 4.6.V V F ] V V d B <.y.t.y.p.a.a.e.y q q q                 ",
"              q >.e.e.e.p.a.a.y.( B B B d ] 7.6.1.F V d  .] A S S A ]  .d V F 1.6.7.] d B B B ( y.a.a.p.e.e.e.>.q               ",
"              q e.d.d.p.{ _ _ ) S S A V d 1.0.8.2.F V V 4.1.] ] ] ] 1.4.V V F 2.8.0.1.d V A S S ) _ _ { p.d.d.e.q               ",
"              q >.<.+.o.B a d ` 2.2.] C d ] 6.6.1.F V V 7.6.1.1.1.1.6.7.V V F 1.6.6.] d C ] 2.2.` d a B o.+.<.>.q               ",
"              < Y c s V C d ` 8.9.3.] C d F 2.1.1.F V V 6.4.]  . .] 4.6.V V F 1.1.2.F d C ] 3.9.8.` d C V s c Y <               ",
"                < $ p ] A d ` 8.9.3.] C d  .8.7.1.F V d  .] A S S A ]  .d V F 1.7.8. .d C ] 3.9.8.` d A ] p $ <                 ",
"                  # p 1.S d C 4.3.2.] C d 1.0.8.1.F V V 4.1.] ] ] ] 1.4.V V F 1.8.0.1.d C ] 2.3.4.C d S 1.p #                   ",
"                  @ p  .S d C 4.3.2.] C d ] 6.6.1.F V V 7.6.1.1.1.1.6.7.V V F 1.6.6.] d C ] 2.3.4.C d S  .p @                   ",
"                  @ p  .S d ` 8.9.3.] C d F 2.1.1.F V V 5...| | | | ..5.V V F 1.1.2.F d C ] 3.9.8.` d S  .p @                   ",
"                  @ p  .S d ` 8.9.3.] C d  .8.7.1.F V p n b b b b b b n p V F 1.7.8. .d C ] 3.9.8.` d S  .p @                   ",
"                  @ p  .S d C 4.3.2.] C d 1.0.7.M k j l q.r.r.r.r.r.r.q.l j k M 7.0.1.d C ] 2.3.4.C d S  .p @                   ",
"                  @ p  .S d C 3.3.2.] C z G X.} ~ *.*.;.M.G.B.B.B.B.G.M.;.*.*.~ } X.G z C ] 2.3.3.C d S  .p @                   ",
"                  @ p  .S d ` 8.7...D Z J L L T x.M.M.M.A.H.A.A.A.A.H.A.M.M.M.x.T L L J Z D ..7.8.` d S  .p @                   ",
"                  @ p  .S d ` 7.N b v J s.j.f.x.A.L.L.A.h.s.s.s.s.s.s.h.A.L.L.A.x.f.j.s.J v b N 7.` d S  .p @                   ",
"                  @ p  .x h k E w.r.r.i.B.L.L.C.b.z.z.j.a.a.a.a.a.a.a.a.j.z.z.b.C.L.L.B.i.r.r.w.E k h x  .p @                   ",
"                  2 g [ ~ *.*.;.M.G.B.V.N.N.N.M.a.a.a.u.-./ -.-.-.-./ -.u.a.a.a.M.N.N.N.V.B.G.M.;.*.*.~ [ g 2                   ",
"                L L L T x.M.M.M.A.H.H.V.s.p.a.p.e.e.e.>.q > , , , , > q >.e.e.e.p.a.p.s.V.H.H.A.M.M.M.x.T L L L                 ",
"              L s.j.f.x.A.L.L.A.h.s.s.s.p.p.a.e.y q q q , > > > > > > , q q q y e.a.p.p.s.s.s.h.A.L.L.A.x.f.j.s.L               ",
"              P n.L.L.C.b.z.z.j.a.a.a.u.Q K K u , : : > > , , , , , , > > : : , u K K Q u.a.a.a.j.z.z.b.C.L.L.n.P               ",
"              t x.V.N.M.a.a.a.u.-.^ -.! , : : : > > > > > > > > > > > > > > > > : : : , ! -.^ -.u.a.a.a.M.N.V.x.t               ",
"              q e.a.a.p.e.e.e.>.q , , , , , , , , , , , , , , , , , , , , , , , , , , , , , , q >.e.e.e.p.a.a.e.q               ",
"              q e.a.a.e.y q q q 4 4 4 4 4 4 4 4 4 4 4 4 4 4 4 4 4 4 4 4 4 4 4 4 4 4 4 4 4 4 4 4 q q q y e.a.a.e.q               ",
"                i K K K r t H L I I I I I I I I I I I I I I I I I I I I I I I I I I I I I I I I L H t r K K K i                 ",
"                : : ; : P %.%.%.%.%.%.%.%.%.%.%.%.%.%.%.%.%.%.%.%.%.%.%.%.%.%.%.%.%.%.%.%.%.%.%.%.%.%.P : - : :                 ",
"                      = Y $.$.$.$.$.$.$.$.$.$.$.$.$.$.$.$.$.$.$.$.$.$.$.$.$.$.$.$.$.$.$.$.$.$.$.$.$.$.P O                       ",
"                      + 4 5 5 5 5 5 5 5 5 5 5 5 5 5 5 5 5 5 5 5 5 5 5 5 5 5 5 5 5 5 5 5 5 5 5 5 5 5 5 4 +                       ",
"                      = L I I I I I I I I I I I I I I I I I I I I I I I I I I I I I I I I I I I I I I L =                       ",
"                      = W %.%.%.%.%.%.%.%.%.%.%.%.%.%.%.%.%.%.%.%.%.%.%.%.%.%.%.%.%.%.%.%.%.%.%.%.%.%.W =                       ",
"                      = T %.%.$.W T T W $.%.%.%.%.%.%.%.%.%.%.%.%.%.%.%.%.%.%.%.%.%.%.$.W T T W $.%.%.T =                       ",
"                      = T %.%.W 7 = = 7 W %.$.$.$.$.$.$.$.$.%.$.$.$.$.$.$.$.%.$.$.$.%.W 7 = = 7 W %.%.T =                       ",
"                      + 5 m r 9 ; - - ; 9 r m m m m m L 0 9 9 9 9 9 9 0 L m m m m m r 9 ; - - ; 9 r m 5 +                       ",
"                      + 5 m 1 X : , , : X 1 m m m m 5 , + + + + + + + + , 5 m m m m 1 X : , , : X 1 m 5 +                       ",
"                      = T &.r o : , , : o r %.$.$.W e + > , > > > > , : + e W $.$.%.r o : , , : o r &.T =                       ",
"                      = T &.r o : , , : o r %.%.%.q - : > , , , , , , > : - q %.%.%.r o : , , : o r &.T =                       ",
"                      = W :.r = t L L r = r %.%.%.8 + , , > , , , , > , , + 8 %.%.%.r = r L L r = r :.W =                       ",
"                      = L R r 9 =.,.,.=.9 r I I I 8 + > , , , , , , , , > + 8 I I I r 9 =.,.,.=.9 r R L =                       ",
"                      + 4 5 5 L e.u.u.e.L 5 5 5 5 : + > , , , , , , , , > + : 5 5 5 5 L e.u.u.e.L 5 5 4 +                       ",
"                      = Y $.$.$.%.=.=.%.$.$.$.$.W 8 + > , , , , , , , , > + 8 W $.$.$.$.%.=.=.%.$.$.$.Y =                       ",
"                      = T %.%.%.$.$.$.$.%.%.%.%.%.9 + > > > > > > > > > > + 9 %.%.%.%.%.$.$.$.$.%.%.%.T =                       ",
"                      = W &.%.%.%.%.%.%.%.%.%.%.%.9 + , 1 1 1 1 1 1 1 1 , + 9 %.%.%.%.%.%.%.%.%.%.%.&.W =                       ",
"                      = U W T T T T T T T T T T T 8 + < 4 5 5 5 5 5 5 4 < + 8 T T T W W W T T T T T W U =                       ",
"                        = = = = = 6 = = = = = = = & ; 4 R $.$.$.$.$.$.R 4 ; & = = = = = = = 6 = = = = =                         ",
"                            % o 0 w 8 & %           ; 3 W W I I I I W W 3 ;           % & 8 w 0 o %                             ",
"                              = L #.e &               < W W I I I I W W <               & e #.L =                               ",
"                              = T &.r &               < W %.$.$.$.$.%.W <               & r &.T =                               ",
"                              = T &.r &               < W R P P P P R W <               & r &.T =                               ",
"                              = T &.r &               < W $.W W W W $.W <               & r &.T =                               ",
"                              = T &.r &               < W $.W W W W $.W <               & r &.T =                               ",
"                              = T &.r &               < W R P P P P R W <               & r &.T =                               ",
"                              = T &.r &               < W %.$.$.$.$.%.W <               & r &.T =                               ",
"                              * 8 9 8                 < W W I I I I $.W <                 8 9 8 *                               ",
"                                % .                   < W W I I I I $.W <                   . %                                 ",
"                                                      < W %.$.$.$.$.%.W <                                                       ",
"                                                      < W R P P P P R W <                                                       ",
"                                                      < W $.$.$.$.$.$.W <                                                       ",
"                                                      9 H L L L L L L H 9                                                       ",
"                                                        > , , , , , , >                                                         "
};
