/* XPM */
static char *_4e1dfbb24ae4a60f4cc14d741b6a2dbwV9Ft3MwSYTreG8W[] = {
/* columns rows colors chars-per-pixel */
"64 64 212 2 ",
"   c None",
".  c #E3DA7E",
"X  c #ECE37B",
"o  c #4C3E8A",
"O  c #4F408B",
"+  c #53458E",
"@  c #56498F",
"#  c #584A8F",
"$  c #574990",
"%  c #5A4C90",
"&  c #5E5192",
"*  c #635593",
"=  c #665994",
"-  c #6A5C99",
";  c #695C96",
":  c #6D6196",
">  c #6E619C",
",  c #726697",
"<  c #7B6597",
"1  c #72649C",
"2  c #766B9C",
"3  c #7B6C9A",
"4  c #7A6897",
"5  c #7D729C",
"6  c #6D63A7",
"7  c #6D64A9",
"8  c #7267A2",
"9  c #756AA3",
"0  c #7A6EA3",
"q  c #7067A8",
"w  c #756DA8",
"e  c #7D72A4",
"r  c #7D75AA",
"t  c #806D9B",
"y  c #83739D",
"u  c #84799D",
"i  c #897F9E",
"p  c #9C7D9C",
"a  c #8375A5",
"s  c #8B7BA3",
"d  c #8275A8",
"f  c #837AAA",
"g  c #8B7FAD",
"h  c #867DA5",
"j  c #8B829F",
"k  c #98889C",
"l  c #A3829E",
"z  c #A49C95",
"x  c #B4AB91",
"c  c #8D84A3",
"v  c #8B82AC",
"b  c #9086A4",
"n  c #958CA3",
"m  c #9D8AA4",
"M  c #9186AD",
"N  c #948CAC",
"B  c #9A86A5",
"V  c #9B93A6",
"C  c #9790AE",
"Z  c #9992AE",
"A  c #9F98A5",
"S  c #8F84B0",
"D  c #9287B2",
"F  c #958BB3",
"G  c #998DB5",
"H  c #9C93B3",
"J  c #9E93B9",
"K  c #A38AA2",
"L  c #A68FA9",
"P  c #A294A4",
"I  c #A49CA6",
"U  c #A693AA",
"Y  c #A893AA",
"T  c #A29AAC",
"R  c #AC9CAC",
"E  c #A99CA6",
"W  c #A29AB1",
"Q  c #A096BA",
"!  c #A49ABD",
"~  c #A59BB8",
"^  c #B59FAE",
"/  c #ABA4A9",
"(  c #AEA9AA",
")  c #A6A0AC",
"_  c #B2ACAB",
"`  c #B2ABA0",
"'  c #BBB5AD",
"]  c #BEB9AE",
"[  c #B7B2AC",
"{  c #ABA5B1",
"}  c #ABA2BD",
"|  c #B3AEB3",
" . c #B2A9BD",
".. c #B9A3B0",
"X. c #B6B2B4",
"o. c #BAB4B3",
"O. c #BCB7B8",
"+. c #C0B789",
"@. c #C89CA4",
"#. c #C298A3",
"$. c #C7A6A7",
"%. c #DEADA9",
"&. c #DCAAA7",
"*. c #CBB4AC",
"=. c #C2BDAF",
"-. c #CCBBAF",
";. c #CDB5B6",
":. c #C3BEB2",
">. c #CEBBB5",
",. c #CEB7B8",
"<. c #C3B8BA",
"1. c #D3B4B0",
"2. c #E0AEA9",
"3. c #E5B4AA",
"4. c #E9B4AA",
"5. c #E4B9AC",
"6. c #E9BDAD",
"7. c #CDC58B",
"8. c #D5CE93",
"9. c #E4DD87",
"0. c #E6DF96",
"q. c #EBE480",
"w. c #EAE389",
"e. c #EEE98C",
"r. c #EFE881",
"t. c #EAE595",
"y. c #EFE993",
"u. c #F0EB9B",
"i. c #F1EB8B",
"p. c #D1CCA8",
"a. c #DBD6A8",
"s. c #C6C1B2",
"d. c #CAC5B3",
"f. c #CECAB3",
"g. c #C8C2BB",
"h. c #CECBB8",
"j. c #D1CDB4",
"k. c #D3CDBA",
"l. c #D4C4B8",
"z. c #D5D1B5",
"x. c #D9D6B5",
"c. c #DCD9B7",
"v. c #D4D2BA",
"b. c #D9D6BA",
"n. c #DDDBBA",
"m. c #EBC1AF",
"M. c #ECCBB2",
"N. c #E4C8B3",
"B. c #E4D5B6",
"V. c #EDD2B4",
"C. c #EEDDB7",
"Z. c #E1DEB9",
"A. c #ECDEBC",
"S. c #E7D8BC",
"D. c #F1D1B4",
"F. c #F2DAB7",
"G. c #F2DFB8",
"H. c #E9D5AC",
"J. c #EAE6A5",
"K. c #E9E6AB",
"L. c #F1EDA3",
"P. c #F2EFAB",
"I. c #ECE9B3",
"U. c #E5E3BB",
"Y. c #EAE3BA",
"T. c #EDE2B9",
"R. c #EAE5BB",
"E. c #EBEABD",
"W. c #F2E2B9",
"Q. c #F1EEBE",
"!. c #F3F2BE",
"~. c #F2F1B4",
"^. c #AEA4C2",
"/. c #B4ABC4",
"(. c #B6ACC4",
"). c #BCB3C9",
"_. c #BCB3C3",
"`. c #C3BCC2",
"'. c #C4BBCD",
"]. c #C0B7CC",
"[. c #CBC4CE",
"{. c #CDC8C1",
"}. c #D3CCCD",
"|. c #DBD5CD",
" X c #DAD5C7",
".X c #CBC2D2",
"XX c #D3CCD2",
"oX c #DBD4D6",
"OX c #DFD8D6",
"+X c #DCD4DC",
"@X c #DFD8D8",
"#X c #EAD4C0",
"$X c #E3DECD",
"%X c #E6DDC2",
"&X c #E2DCD3",
"*X c #E1DBD9",
"=X c #E6E3C4",
"-X c #EDEBC3",
";X c #E6E2CD",
":X c #E9E6C9",
">X c #EDE9CC",
",X c #ECE5C4",
"<X c #F6E5C3",
"1X c #F9E6C5",
"2X c #F2EEC2",
"3X c #F9EEC3",
"4X c #F2EECE",
"5X c #F3F2C1",
"6X c #F6F4C7",
"7X c #E6E1D1",
"8X c #EAE5D6",
"9X c #EDE8D7",
/* pixels */
"                                                                                                                                ",
"                                  + + + + + +                                       + + + + + +                                 ",
"                              % % % % % % % % % %                               % % % % % % % % % %                             ",
"                            ; : : : : : : : : : :                               : : : : : : : : : : ;                           ",
"                            5 u j j j j j j j i u 5                           3 u i j j j j j j j u y                           ",
"                        * 2 c I ( _ _ _ _ _ _ ( P j , *                     , i V / _ _ _ _ _ _ ( I b 5 =                       ",
"                      @ * 3 m [ f.z.z.z.z.z.z.d._ n 3 * @                 & 1 b _ s.z.z.z.z.z.z.f.' P 5 = @                     ",
"                      @ * 3 P =.B.T.T.Y.Y.E.E.Z.:.V 3 * @               + % , n ' c.E.E.Y.Y.T.T.Z.s.I y = @                     ",
"                      @ * 3 K *.B.G.W.G.W.Q.Q.Y.d.V 2 & + O           O + # , n =.Z.Q.Q.W.G.W.W.B.-.E y = @                     ",
"                      @ * 4 m $.N.D.D.D.F.W.Q.Y.d.A 2 & + + @ @ @ @ @ + + # , n :.Z.Q.W.F.D.D.D.N.*.P t = $                     ",
"                      @ * < k $.3.6.m.m.M.F.W.Y.d.I 5 = % % & & & & & % % * 2 V :.Z.W.F.M.m.m.m.5.$.K t = $                     ",
"                      $ * < p #.%.4.4.3.m.V.W.Y.f.( c 2 > > 1 1 1 1 1 > > 2 h ) d.Z.T.V.m.5.4.4.2.@.l t = $                     ",
"                      $ * < p #.&.4.4.4.6.M.C.Y.v.O.W M v g v v v v v g g M W o.k.Y.W.V.6.3.4.4.2.@.l < = $                     ",
"                      $ * < p #.&.4.4.4.6.M.C.R.n.{._./.^.^.^.^.^.^.^.^.^.^._.{.n.R.T.V.6.3.4.4.2.@.l < = $                     ",
"                      $ * < p #.%.4.4.5.m.V.C.E.=X|.}..X.X.X.X.X.X.X.X.X.X.X}.|.=XE.T.V.m.5.4.4.3.@.l 4 = $                     ",
"                      @ * < k $.5.m.m.m.M.V.T.E.:X;XOX+X+X+X+X+X+X+X+X+X+X+X@X$X:X-XT.C.M.m.m.m.5.$.l 3 = $                     ",
"                      @ * 4 m $.N.V.V.V.V.C.T.E.-X;X*X@X@X@X@X@X@X@X@X@X@X@X*X7X:X-XE.C.V.V.V.V.N.*.P t = $                     ",
"                      @ * 3 P -.B.G.W.T.T.W.Q.E.-X;X*X+X@X@X@X@X@X@X@X@X@X@X*X7X:X-XQ.Q.W.W.W.W.B.>.I y = @                     ",
"                      @ * 3 P s.Y.Q.Q.Q.Q.Q.Q.-X:X;X*X+X+X+X+X+X+X+X+X+X+X+X@X&X:X-XQ.Q.Q.Q.Q.Q.Y.j.E y = @                     ",
"                      @ * 5 I d.U.!.!.!.!.!.!.-X:X;XOX+X+X+X+X+X+X+X+X+X+X+X+X&X:X-X!.!.!.!.!.!.E.j./ y = @                     ",
"                      @ * 5 I d.Y.!.5X!.!.!.!.-X:X;XOX+X+X+X+X+X+X+X+X+X+X+XOX&X:X-X!.!.!.!.!.!.E.j./ u = #                     ",
"                      @ * 5 I d.Y.!.!.!.!.!.!.-X:X;X*X+X+X+X+X+X+X+X+X+X+X+XOX&X:X-X!.!.!.!.!.!.E.j./ u = #                     ",
"                      @ * 5 I d.Y.!.!.!.!.!.!.-X-X;X*X+X+X+X+X+X+X+X+X+X+X+X*X;X:X-X!.!.!.!.!.!.E.j./ u = @                     ",
"                    @ @ * 5 I d.Y.!.!.!.!.!.!.5X-X:X;X&X*X*X*X*X&X&X&X&X&X&X&X:X-XQ.!.!.!.!.!.!.E.j./ u = # +                   ",
"                  # @ $ * 5 I d.Y.!.5X!.!.!.!.!.-X-X:X;X;X;X;X;X;X;X;X;X;X;X:X:X-XQ.!.!.!.!.5X!.E.j./ u = $ @ @                 ",
"                % # @ $ * 5 I d.U.!.!.!.Q.Q.!.Q.Q.-X-X-X-X-X-X-X-X-X-X-X-X-X-X-X-X!.!.!.Q.Q.!.!.E.j./ u = $ @ # %               ",
"                % # @ $ * 5 I d.Y.E.Y.Z.Z.Y.E.E.!.!.Q.Q.Q.Q.Q.Q.Q.Q.Q.Q.Q.Q.Q.!.!.Q.E.U.Z.Z.U.E.R.j./ u = $ @ # %               ",
"                % # @ @ * 5 I d.Z.Z.z.s.s.j.Z.E.!.!.!.!.!.!.!.!.!.!.!.!.!.!.!.!.!.E.U.z.s.s.j.n.U.j.( u = $ @ # %               ",
"                    @ @ * 5 I d.c.z.' ) / ' j.U.!.!.!.!.!.!.!.!.!.!.!.!.!.!.!.!.!.E.x.] / I [ j.c.j.( u = $ @                   ",
"                    @ @ * 5 I d.x.d./ b b / d.Y.!.!.!.!.!.!.!.!.!.!.!.!.!.!.!.!.!.Y.j.( n c I s.x.j.( u = $ +                   ",
"                      @ * 5 I d.x.d./ c b / d.Y.!.!.!.!.!.!.!.!.!.!.!.!.!.!.!.!.!.Y.j.( b j I s.x.f.( u = $ +                   ",
"                    @ @ * 5 I d.c.z.' I I [ j.U.!.!.!.!.!.!.!.!.!.!.!.!.!.!.!.!.!.E.x.' I I _ f.c.j.( u = $ @                   ",
"                % # @ $ * 5 I d.Z.Z.j.=.=.f.n.E.!.!.!.!.!.!.!.!.!.!.!.!.!.!.!.!.!.E.Z.j.:.=.f.c.U.j.( u = $ @ @ %               ",
"                % # @ $ * 5 I d.U.E.Y.n.c.U.R.E.!.!.!.!.!.5X5X5X5X5X5X5X!.!.!.!.!.Q.E.Y.Z.c.Y.E.U.j.( u = $ @ # %               ",
"                % # @ $ * 5 I d.Y.2X2XQ.Q.Q.Q.!.!.!.!.5X5X5X5X5X5X5X5X5X5X5X5X!.!.!.Q.Q.Q.Q.2X2XE.j./ y = $ @ # %               ",
"                  # @ @ * 3 P d.A.3X3X3X3X5X!.!.!.!.!.!.!.!.!.!.!.!.!.!.!.!.!.!.!.!.!.5X3X3X3X3X,Xl.R y * $ @ @ %               ",
"                    + @ * 3 U >.S.<X1X<X<X2X2X!.!.!.!.!.!.!.!.!.!.!.!.!.!.!.!.!.!.!.2X2X<X<X1X1X#Xl.R y = $ @                   ",
"                      @ * 4 L ;.l.#X#X#X#XA.Y.R.E.E.E.E.E.E.E.E.R.R.R.R.E.E.E.E.E.R.Y.A.S.#X#X#XN.;.U y = $                     ",
"                        * 4 B ^ ;.,.;.;.>.l.k.k.v.v.v.v.v.v.v.v.v.v.v.v.v.v.v.v.v.k.k.l.>.,.;.,.;...m 3 * #                     ",
"                          1 s B L Y Y Y Y R | | X.X.X.X.X.X.X.| | | | X.X.X.X.X.X.| | / R Y Y Y L m s 4                         ",
"                            4 t y y y y s s M N C C C C C C C C C C C C C C C C C N M c s y y y y t 4                           ",
"                            - 1 1 1 1 1 2 3 e r r r r d f h c c v v v v f d r r r r e 0 2 1 1 1 1 1 >                           ",
"                            1 0 0 e 5 5 5 e 9 q q q q w e u j k n N M v d w q q q q w 0 5 5 5 e 0 0 9                           ",
"                          1 d S G H T T V c r q 6 7 6 9 u k z x ` _ { H v r 6 6 6 q e c V T T H G D f 8                         ",
"                        * 9 S ! (.`.g.s.o.T v r q 7 q e k z +.7.8.p.s.| H d w 6 6 w v T X.s.g.`._.^.D 0 * @                     ",
"                      @ * 9 F (.[.|.;X%Xv.o.T v r r d c z x 7.9.t.J.a.s.{ N d r r g Z X.j.Z.=X|.XX).J 0 * @                     ",
"                      @ * 9 G ).oX9X4X2XU.h.X.W C F C I x 7.. q.i.u.J.p.] / Z N C W | d.U.-X4X9X@X'.J e * @                     ",
"                      @ * 9 G ).oX9X4X6XE.n.h.:.o.X.o.=.8.8.. X r.e.t.a.p.=.o.X.o.O.d.b.E.6X4X9X@X'.J e * @                     ",
"                      @ * 9 G ).XX&X>X-XE.U.Z.b.b.b.b.x.a.9.9.X X q.w.0.a.x.b.b.b.b.n.U.E.-X>X7XoX].J 0 * @                     ",
"                      @ * 9 D ^.'.}. Xb.Z.Y.Y.E.E.E.E.I.J.t.w.q.X q.w.t.J.I.E.E.E.E.Y.Y.Z.n. X}.[./.G 0 * #                     ",
"                        * 8 g J }  .| o.s.z.U.E.!.!.!.~.P.L.y.y.e.e.y.u.P.~.!.!.!.Q.U.x.d.o.o. .} Q v 9 *                       ",
"                          > 0 f g v b n I ] x.E.!.!.!.!.~.P.L.L.L.L.L.P.~.!.!.!.!.E.c.=./ m b v v f e 1                         ",
"                            - > 1 > > 2 j / f.U.5X5X!.!.E.I.I.I.K.K.I.I.Q.Q.!.5X5XR.j._ c 3 1 > 1 1 >                           ",
"                              & & % % * 3 V :.Z.2X6X2X-XU.n.x.z.z.z.x.c.U.-X2X6X6X=Xd.I 5 = % % & &                             ",
"                                @ + + % 1 N O. X>X4X>X;X Xg.o._ _ _ o.s.k.%X>X4X>X$X<.Z 2 & + + @                               ",
"                                  + + % 1 M O.|.8X9X7X|.`.{ V c i c n { <.}.&X9X9X|.`.C 2 % + +                                 ",
"                                    + % 1 M  .[.oX+XoX[. .N e : ; : 3 M } '.XX@X@XXX(.F 2 & @                                   ",
"                                      & 1 g ! (.'.'.'./.Q f > % @ % - d J /.).'.'.).! M 9 * @                                   ",
"                                        > d D J ! ! Q G v 0 * + o + * 9 g G Q ! ! J F f 1                                       ",
"                                          9 0 d d d d e 0 1           - 0 e d d d d e 9                                         ",
"                                            ; - - - - - -               - - - - - - ;                                           ",
"                                            % % % % % %                   % % % % % %                                           ",
"                                                + +                           + +                                               ",
"                                                                                                                                "
};
