/* XPM */
static char *_0a1f352f3994435d56ae2b8ff376240Bfp2feft4NHvritP[] = {
/* columns rows colors chars-per-pixel */
"64 64 225 2 ",
"   c #EBD3A8",
".  c #EED6AA",
"X  c #ECD4A9",
"o  c #E9D0A6",
"O  c #E7CDA2",
"+  c #E4C89B",
"@  c #E1C294",
"#  c #DFBE8E",
"$  c #DEBD8D",
"%  c #E0C091",
"&  c #E3C598",
"*  c #E6CB9F",
"=  c #E8CFA4",
"-  c #E9D1A7",
";  c #EAD1A7",
":  c #E6CBA0",
">  c #E8D0A6",
",  c #E9D1A6",
"<  c #EDD5A9",
"1  c #EFD8AB",
"2  c #EBD3A7",
"3  c #E9CFA3",
"4  c #E6CA9C",
"5  c #E3C495",
"6  c #E1C08F",
"7  c #E0BF8E",
"8  c #E2C292",
"9  c #E5C799",
"0  c #E8CDA0",
"q  c #EAD1A5",
"w  c #EBD2A7",
"e  c #E5C899",
"r  c #E3C494",
"t  c #EBD2A6",
"y  c #EBD2A8",
"u  c #ECD3A8",
"i  c #EFD7AA",
"p  c #ECD3A9",
"a  c #EAD1A6",
"s  c #E5C89B",
"d  c #E2C394",
"f  c #E0BE8F",
"g  c #DFBD8E",
"h  c #E1C191",
"j  c #E4C698",
"k  c #E9D0A5",
"l  c #EAD2A8",
"z  c #E6CCA0",
"x  c #E1C192",
"c  c #EAD2A7",
"v  c #ECD4A8",
"b  c #EED6A9",
"n  c #E8CFA5",
"m  c #E6CBA1",
"M  c #E3C69A",
"N  c #E0C093",
"B  c #DEBD8E",
"V  c #DDBC8D",
"C  c #DFBF91",
"Z  c #E2C397",
"A  c #E4C99E",
"S  c #E7CDA4",
"D  c #E8CFA6",
"F  c #E5C99E",
"G  c #DEBC8E",
"H  c #E5CBA1",
"J  c #E7CEA5",
"K  c #EAD1A8",
"L  c #E5CAA1",
"P  c #E2C59A",
"I  c #DFC093",
"U  c #DDBC8E",
"Y  c #DDBB8D",
"T  c #DEBE91",
"R  c #E1C397",
"E  c #E4C89E",
"W  c #E6CCA3",
"Q  c #E7CEA6",
"!  c #E7CFA6",
"~  c #DFBF93",
"^  c #EBD4A9",
"/  c #E7CFA5",
"(  c #E6CDA4",
")  c #E8CFA7",
"_  c #E8CEA6",
"`  c #E2C498",
"'  c #EAD2A9",
"]  c #E5CBA2",
"[  c #E3C69B",
"{  c #E1C497",
"}  c #E4C99F",
"|  c #E7CFA7",
" . c #E8D0A7",
".. c #E3C59A",
"X. c #E6CDA3",
"o. c #DFBE91",
"O. c #E5CBA0",
"+. c #E7CEA4",
"@. c #E6CCA2",
"#. c #E2C599",
"$. c #DFBF92",
"%. c #DDBB8C",
"&. c #DEBD90",
"*. c #E1C296",
"=. c #E3C79C",
"-. c #E1C396",
";. c #E7CDA3",
":. c #E6CA9F",
">. c #E7CB9F",
",. c #E4C89D",
"<. c #E0C295",
"1. c #DEBE90",
"2. c #DCBA8C",
"3. c #DCB98B",
"4. c #E1C498",
"5. c #E3C89E",
"6. c #E3C79D",
"7. c #E3C597",
"8. c #E5C798",
"9. c #E0C094",
"0. c #DCB98A",
"q. c #DBB98A",
"w. c #DEBD8F",
"e. c #E0C195",
"r. c #E1C297",
"t. c #E1C195",
"y. c #E0BF91",
"u. c #DFBE90",
"i. c #DCBA8B",
"p. c #DCB989",
"a. c #DBB889",
"s. c #DCBB8C",
"d. c #DBB98B",
"f. c #DDBA8C",
"g. c #DEBC8D",
"h. c #E0BE8E",
"j. c #DFBE8F",
"k. c #E0BF8F",
"l. c #DDBB8E",
"z. c #DEBB8B",
"x. c #DFBE8D",
"c. c #E0C194",
"v. c #DBB88A",
"b. c #DEBC8C",
"n. c #E1C090",
"m. c #E0C092",
"M. c #E4C89C",
"N. c #E3C59B",
"B. c #E2C59B",
"V. c #E3C497",
"C. c #E5CA9F",
"Z. c #E5C89C",
"A. c #E7CDA5",
"S. c #E4CA9F",
"D. c #E5C89A",
"F. c #E1C295",
"G. c #E1C193",
"H. c #E6C89B",
"J. c #E7CBA0",
"K. c #E3C89D",
"L. c #E2C69A",
"P. c #E8CEA5",
"I. c #E5CAA0",
"U. c #E6C89A",
"Y. c #E6CBA2",
"T. c #E3C89C",
"R. c #DEBC8F",
"E. c #E3C79B",
"W. c #E1C398",
"Q. c #E0BF93",
"!. c #DDBD8E",
"~. c #DFBD8D",
"^. c #E1C091",
"/. c #DCB889",
"(. c #E1C092",
"). c #E3C698",
"_. c #E2C497",
"`. c #E3C699",
"'. c #E9CFA4",
"]. c #EAD2A6",
"[. c #EBD3A9",
"{. c #E6CDA2",
"}. c #E8CDA1",
"|. c #E7CCA0",
" X c #DFC193",
".X c #DCB98C",
"XX c #DEBF91",
"oX c #E4C699",
"OX c #E2C499",
"+X c #E9CFA2",
"@X c #E8D0A5",
"#X c #E8CEA2",
"$X c #EAD0A3",
"%X c #E8CEA3",
"&X c #E6CCA1",
"*X c #E0C193",
"=X c #E6C99D",
"-X c #E7CB9D",
";X c #E9CE9E",
":X c #E8CC9D",
">X c #E6C99C",
",X c #E5C99C",
"<X c #E5C99D",
"1X c #E4C79A",
"2X c #E3C496",
"3X c #E2C395",
"4X c #E0BF90",
"5X c #E2C190",
"6X c #E5C796",
"7X c #E6C899",
"8X c #E6C798",
"9X c #E8C998",
"0X c #E6C898",
"qX c #E4C597",
"wX c #E4C596",
"eX c #E2C293",
"rX c #E0BE8D",
"tX c #DFBD8C",
"yX c #E3C394",
"uX c #E2C191",
"iX c #E0BD8C",
"pX c #E2C18F",
"aX c #E5C592",
"sX c #E5C595",
"dX c white",
/* pixels */
"  . X o O + @ # $ % & * = - ; - o o o o o o o o o o o o o o o o o o o - ; - = : & % $ # @ + O > ; - - o o o o o o o o o ,   <   ",
"< 1 . 2 3 4 5 6 7 8 9 0 q       w w w w w w w w w w w w w w w w w w w       q 0 e 8 7 6 r 4 3 t     y w w w w w w w w w u < i < ",
"p . X a O s d f g h j * k ; l ; ; a a a a a a a a a a a a a a a a a ; ; l ; k z j x g f d s O , l c ; a a a a a a a a a ; v b   ",
"- X l n m M N B V C Z A S D D D D n n n n n n n n n n n n n n n n n D D D D S F Z C V G N M H J D D D D n n n n n n n n D ; u , ",
"-   K J L P I U Y T R E W Q ! Q J Q Q Q Q Q Q Q Q Q Q Q Q Q Q Q Q Q J Q ! ! W A R T Y U ~ P L S D ! Q J Q Q Q Q Q Q Q J D ; w o ",
"K ^ l / H M N U Y T R A ( ! ) D _ n D D D D D D D D D D D D D D D D _ D ) ! ( A ` T Y U I M H J D ) D _ D D D D D D D J D ;   - ",
"K X ' ! ] [ N U Y T { } ( |  .D D _ D D D D D D D D D D D D D D D _ D D  .| ( } ` T Y U I M H J ) ) D D D D D D D D D Q D l   ; ",
"-   K J H ..N U Y T R A X./ ! Q J J J J J J J J J J J J J J J J J J J Q ! / X.A R o.Y U I ..O.+.! ! Q J J J J J J J J J D ; 2 - ",
"= a k @.A #.$.Y %.&.*.=.O.X.( W W W W W W W W W W W W W W W W W W W W W ( X.H =.-.&.%.Y $.` A @.X.( W W W W W W W W W W ;.= q = ",
":.0 >.,.P <.1.2.3.U I 4.=.E A E E 5.5.5.5.E E E E E E E E E 5.5.5.5.E E A E =.4.I U 3.2.1.<.P 6.E E E E 5.5.5.5.E E E E A * 0 :.",
"7.8.& -.9.T Y 0.q.2.w.I e.r.R R *.*.*.*.*.r.R R R R R R R r.*.*.*.*.*.R R r.t.I w.2.q.0.Y T 9.*.R R r.*.*.*.*.*.r.R R R { & 9 7.",
"y.8 % u.B Y i.p.a.0.s.U w.1.1.1.1.&.&.&.&.1.1.1.1.1.1.1.1.1.&.&.&.&.1.1.1.1.w.U %.0.a.p.i.Y B &.1.1.1.&.&.&.&.&.1.1.1.1.u.% 8 % ",
"$ 7 g Y %.i.3.0.0.d.i.f.Y Y Y Y Y Y Y Y Y Y %.2.2.i.2.2.%.Y Y Y Y Y Y Y Y Y Y %.i.d.0.0.3.i.%.Y Y Y Y Y Y Y Y Y %.f.2.i.s.g.h.g.",
"j.6 k.B U U U U U U U U U U l.l.U U U U U V %.i.q.q.q.i.%.V U U U U U l.l.U U U U U U U U U U U l.l.U U U U U U Y 2.0.q.0.z.x.g ",
"@ 5 d c.9.c.c.c.c.c.c.c.9.N N N N 9.c.c.9.$.1.Y 0.v.0.Y 1.$.9.c.c.9.N N N N 9.c.c.c.c.c.c.c.9.N N N N N 9.c.9.N C w.i.q.0.b.n.m.",
"M.4 s [ N.[ [ [ [ [ [ [ B.B.B.B.B.N.[ [ ..` e.1.2.d.2.1.e.4...[ [ N.B.B.B.B.B.[ [ [ [ [ [ [ N.B.B.B.B.B.[ [ [ P R I U 3.i.# d V.",
"O 3 O m L L L L L L L L L L L L L L H ] O.E #.I U 2.l.I #.E O.] H L L L L L L L L L L L L L L L L L L L H H H C.=.R o.2.%.% j Z.",
"o w , J S +.+.+.+.+.+.+.+.+.+.+.+.A.J J +.H =.e.w.%.w.e.=.H +.J J A.+.+.+.+.+.+.+.+.+.+.+.+.+.+.+.+.+.S J Q J X.S.#.$.Y V x D.* ",
";   l D D D D D D D D D D D D D D D ) ) ! W ,.F.w.Y w.<.6.W ! ) ) D D D D D D D D D D D D D D D D D D D D ) ) J H P I U V G.H.J.",
"-   ; D Q D D D D D D D D D D D _ D ) ) ! W K.<.w.Y w.<.=.W ! ) ) D _ D D D D D D D D D D D D D D D _ D D  .) J L L.I U V G.H.J.",
"- y ; D J n n n n n n n n n n n n _ D D J @.=.e.w.Y w.e.=.@.J D D _ n n n n n n n n n n n n n n n n n P.D D D S I.P ~ U V G.U.J.",
"o w a D J D D D D D D D D D D D D n _ D J Y.=.e.w.Y w.e.=.Y.J D _ n D D D D D D D D D D D D D D D D D n _ D D S I.P $.U V x U.J.",
"- y ; D J n n n n n n n n n n n n _ D D J @.=.e.w.Y w.e.=.@.J D D _ n n n n n n n n n n n n n n n n n P.D D D S I.P ~ U V G.U.J.",
"-   ; D Q D D D D D D D D D D D _ D ) ) ! W K.<.w.Y w.<.T.W ! ) ) D _ D D D D D D D D D D D D D D D _ D D  .) J H L.I U V G.H.J.",
";   l D D D D D D D D D D D D D D D ) ) ! W ,.F.w.Y w.e.6.W ! ) ) D D D D D D D D D D D D D D D D D D D D ) ) J H P I U V G.H.J.",
"> t o J S S S S S S S S S S S S S S J J +.H =.e.w.%.R.e.E.H +.J J S S S S S S S S S S S S S S S S S S S J J J X.S.#.$.Y V x D.* ",
"O 3 O H L L L L L L L L L L L L L L H H I.E #.I U 2.Y I #.,.I.H H L L L L L L L L L L L L L L L L L L L L H H S.=.-.1.2.%.% j Z.",
"+ 4 s M P M M M M M M ..P P P P P P M M P W.c.1.2.d.2.1.c.W.P M M ..P P P P P ..M M M M M M P P P P P P ..M M P r.I U 3.i.# d V.",
"@ 5 d N 9.c.c.c.c.c.c.9.I I I I I N 9.9.N $.&.Y 0.v.0.Y w.$.N 9.9.N I I I I I 9.c.c.c.c.c.c.9.I I I I I N c.9.Q.C !.i.q.0.b.n.% ",
"# 6 f B U U U U U U U U U l.l.l.U U U U U Y %.i.q.q.q.i.%.Y U U U U U l.l.l.U U U U U U U U U U l.l.l.U U U U U Y 2.0.q.0.z.x.~.",
"$ 7 g Y %.i.3.0.0.d.i.2.Y Y Y Y Y Y Y Y Y Y %.2.2.2.2.2.%.Y Y Y Y Y Y Y Y Y Y s.i.d.0.0.3.i.%.Y Y Y Y Y Y Y Y Y %.f.2.2.s.$ h.g.",
"% 8 ^.u.w.V i.p.a.0.%.U w.1.T T 1.&.&.&.&.T T T T T T T T T &.&.&.&.1.T T T w.U %.0.a./.i.Y B &.T T T 1.&.&.&.&.T T T T C (.8 % ",
"& 9 ).R c.T V 3.q.2.w.I *.r.R R r.*.*.*.r.r.R R R R R R R r.r.*.*.*.r.R R r.*.I &.2.q.3.Y T c.*.R R r.*.*.*.*.r.R R R R _.`.9 & ",
"* 0 J.,.P <.1.2.3.U I ` =.E A E E E E E E E E E E E E E E E E E E E E E A E =.` I U 3.2.1.<.P K.A A E E E E E E E E E E A * 0 * ",
"'.].k @.A #.$.Y %.&.*.=.H X.( W W W W W W W W W W W W W W W W W W W W W ( X.H =.-.&.%.Y $.#.A @.( ( W W W W W W W W W W ;.n q = ",
"-   K J H ..N U Y T R A X.! ! Q J J J J J J J J J J J J J J J J J J J Q ! ! X.A R T Y U I ..O.+.! ! Q J J J J J J J J J D ; 2 - ",
"K X ' ! ] [ N U Y T { } ( |  .D D _ D D D D D D D D D D D D D D D _ D D  .| ( } ` T Y U I M H J ) ) D D D D D D D D D Q D l   ; ",
"K ^ l / H M N U Y T R A ( ! ) D _ n D D D D D D D D D D D D D D D n _ D ) ! ( A ` T Y U I M H J D ) D _ D D D D D D D J D ;   - ",
"- [.K J L P N U Y T R E W ! D _ n D D D D D D D D D D D D D D D D D n _ D ! W A R T Y U ~ P L S D D _ n D D D D D D D J D ; w o ",
"-   K J L P N U Y T R E W ! D _ n D D D D D D D D D D D D D D D D D n _ D ! W A R T Y U ~ P L S D D _ n D D D D D D D J D ; w o ",
"K ^ l / H M N U Y T R A ( ! ) D _ n D D D D D D D D D D D D D D D n _ D ) ! ( A ` T Y U I M H J D ) D _ D D D D D D D J D ;   - ",
"K X ' ! ] [ N U Y T { } ( |  .D D _ D D D D D D D D D D D D D D D _ D D  .| ( } ` T Y U I M H J ) ) D D D D D D D D D Q D l   ; ",
"-   K J H ..N U Y T R A X.! ! ! J J J J J J J J J J J J J J J J J J J ! ! ! X.A R T Y U I ..H +.! ! Q J J J J J J J J J D ; 2 - ",
"'.].k {.A #.$.Y %.&.*.=.H X.( X.W W W W W W W W W W W W W W W W W W W X.( X.H =.-.&.%.Y $.#.A @.( ( W W W W W W W W W W ;.n q = ",
"* }.|.A P <.1.2.3.U I ` =.E A E E E E E E E E A A A A A E E E E E E E E A E =.`  XU .X2.1.<.P K.A A E E E E E E E E A E A : 0 * ",
"& 9 j R c.XXV 3.q.2.&.I *.R { R r.r.r.r.r.R R { { { { { R R r.r.r.r.r.R { R *.I &.2.q.3.V T c.r.R { R r.r.r.r.r.R R { R ` oX9 & ",
"% 8 h u.w.V i.p.a.0.%.!.&.T T T 1.&.&.&.&.T T T T T T T T T &.&.&.&.1.T T T &.!.%.0.a./.i.V w.&.T T T 1.&.&.&.T T T T T C (.8 % ",
"$ 7 g Y %.i.3.q.q.d.i.s.Y Y Y Y Y Y Y Y Y Y %.2.2.2.2.2.%.Y Y Y Y Y Y Y Y Y Y s.i.d.q.q.3.i.%.Y Y Y Y Y Y Y Y Y Y f.2.2.%.$ h.g.",
"# 6 f B U U U U U U U U U l.l.l.U U U U U Y %.i.q.q.q.i.%.Y U U U U U l.l.l.U U U U U U U U U U l.l.l.U U U U U Y 2.3.q.0.z.x.~.",
"@ r d N I N N N N N N I I ~ ~ ~ ~ I N I N $.w.Y 0.v.0.%.w.$.N I N I ~ ~ ~ ~ I I N N N N N N I ~ ~ ~ ~ I I I N ~ o.!.i.q.0.b.n.% ",
"+ 4 s ..P M M M M M M ..P P P P P P M M P W.c.1.2.d.2.1.c.W.P M M P P P P P P ..M M M M M M P P P P P P ..M M OXr.I U 3.i.# d V.",
"O +XO H I.I.I.I.I.I.I.I.I.I.I.I.I.I.H H I.,.#.I l.2.Y I OX,.I.H H I.I.I.I.I.I.I.I.I.I.I.I.I.I.I.I.I.I.I.L H H S.=.-.1.2.%.% j Z.",
"@Xt o J S S S S S S S S S S S S S S J J +.H =.e.w.%.R.e.E.H +.J J S S S S S S S S S S S S S S S S S S S A.J J X.} #.$.Y V x D.* ",
";   c D ! D D D D D D D D D D D D D ) ) ! W ,.F.w.Y w.e.6.W ! ) ) D D D D D D D D D D D D D D D D D D D D ) ) J H P I U V G.H.J.",
"-   ; D Q D D D D D D D D D D D _ D ) ) ! W K.<.w.Y w.<.T.W ! ) ) D _ D D D D D D D D D D D D D D D _ D )  .) J H L.I U V G.H.J.",
"- y ; D J n n n n n n n n n n n n _ D D J @.=.e.w.Y w.e.=.@.J D D _ n n n n n n n n n n n n n n n n n P.D ) D S I.P ~ U V G.U.J.",
"o w a D J D D D D D D D D D D D D n _ D J Y.=.e.w.Y w.e.=.Y.J D _ n D D D D D D D D D D D D D D D D D n _ D D S I.P $.U V x U.J.",
"- y ; D J n n n n n n n n n n n n _ D D J @.=.e.w.Y w.e.=.@.J D D _ n n n n n n n n n n n n n n n n n P.D D D S I.P ~ U V G.U.J.",
"-   ; D Q D D D D D D D D D D D _ D ) ) ! W K.<.w.Y w.<.=.W ! ) ) D _ D D D D D D D D D D D D D D D _ D D  .) J L L.I U V G.H.J.",
";   l D D D D D D D D D D D D D D D ) ) ! W ,.F.w.Y w.<.6.W !  .) D D D D D D D D D D D D D D D D D D D D ) ) J H P I U V G.H.J.",
"o w , J A.J J J J J J J J J J J J J J J +.H =.e.w.%.R.e.=.H +.J J J J J J J J J J J J J J J J J J J J J J Q J X.S.#.$.Y V x D.* ",
"#X$X%X&Xm m m m m m m m m m m m m m @.@.&XF L.c.B %.B *XL.F &X@.@.m m m m m m m m m m m m m m m m m m m Y.@.@.: ,.{ C V g.x 8.=X",
"-X;X:X>X,X,X,X,X,X,X,X,X,X,X,X,X,X,X<X=X,X1XV.x # b.# (.2X1X,X=X<X,X,X,X,X,X,X,X,X,X,X,X,X,X,X,X,X,X,X,X<X=X=XZ.oX3X4X~.~.5X6X7X",
"8X9X0XqXwXwXwXwXwXwXwXwXwXwXwXwXwXwXwXwXwX5 eXn.rXtXrX6 8 5 wXwXwXwXwXwXwXwXwXwXwXwXwXwXwXwXwXwXwXwXwXwXwXwXwXwXyXuX7 tXiXpXaXsX"
};
